Coordinates
version=1
nRows=6
nColumns=38
inDegrees=no

Units are S.I. units (second, meters, Newtons, ...)
If the header above contains a line with 'inDegrees', this indicates whether rotational values are in degrees (yes) or radians (no).

endheader
time	pelvis_tilt	pelvis_list	pelvis_rotation	pelvis_tx	pelvis_ty	pelvis_tz	hip_flexion_r	hip_adduction_r	hip_rotation_r	knee_angle_r	ankle_angle_r	subtalar_angle_r	mtp_angle_r	hip_flexion_l	hip_adduction_l	hip_rotation_l	knee_angle_l	ankle_angle_l	subtalar_angle_l	mtp_angle_l	lumbar_extension	lumbar_bending	lumbar_rotation	arm_flex_r	arm_add_r	arm_rot_r	elbow_flex_r	pro_sup_r	wrist_flex_r	wrist_dev_r	arm_flex_l	arm_add_l	arm_rot_l	elbow_flex_l	pro_sup_l	wrist_flex_l	wrist_dev_l
200	0.156841	1.35254	-1.44978	0.813315	-0.593415	0.943696	-0.348549	-0.04313	-0.349975	0.241626	-0.218711	0	0	-0.377031	-0.113367	-0.0640027	0	-0.387297	0	0	-0.292048	0.0575101	-0.153778	0.0947918	-0.203754	0.203052	0.534232	1.54089	0	0	0.220188	-0.182501	0.592663	0.442194	1.5708	0	0
200.01	0.160936	1.35146	-1.45421	0.813155	-0.593268	0.943877	-0.349623	-0.0439599	-0.350266	0.241457	-0.219451	0	0	-0.378427	-0.112818	-0.0646857	0	-0.38811	0	0	-0.293366	0.0564116	-0.15307	0.0945301	-0.20317	0.2005	0.534732	1.54072	0	0	0.220518	-0.182658	0.593443	0.442229	1.5708	0	0
200.02	0.157797	1.35204	-1.45053	0.813179	-0.593035	0.943752	-0.348187	-0.0433969	-0.350541	0.242752	-0.218789	0	0	-0.376817	-0.113312	-0.0633209	0	-0.387569	0	0	-0.292552	0.0571713	-0.152887	0.0937212	-0.203698	0.198834	0.536469	1.54069	0	0	0.22086	-0.182178	0.594096	0.441921	1.5708	0	0
200.03	0.174133	1.33057	-1.45771	0.812912	-0.591022	0.94501	-0.374032	-0.0398879	-0.361551	0.234483	-0.224913	0	0	-0.396382	-0.115696	-0.0517467	0	-0.388502	0	0	-0.317361	0.0567483	-0.156665	0.0923533	-0.20519	0.197655	0.549239	1.5384	0	0	0.226875	-0.189891	0.603735	0.454913	1.5708	0	0
200.04	0.174571	1.3304	-1.45813	0.812833	-0.590825	0.945025	-0.374071	-0.039851	-0.361269	0.23403	-0.22511	0	0	-0.396191	-0.115636	-0.0516592	0	-0.388737	0	0	-0.31739	0.0565751	-0.156893	0.092634	-0.204949	0.197892	0.548588	1.5384	0	0	0.226712	-0.19	0.60365	0.455096	1.5708	0	0
200.05	0.175033	1.33017	-1.45861	0.812737	-0.590623	0.945028	-0.373535	-0.040168	-0.361367	0.2353	-0.224523	0	0	-0.396118	-0.115554	-0.0516216	0	-0.388888	0	0	-0.317363	0.056376	-0.157446	0.0933883	-0.204575	0.198363	0.547521	1.5375	0	0	0.226253	-0.190358	0.603256	0.455662	1.5708	0	0
